<svg width="64" height="64" viewBox="0 0 64 64" fill="none" xmlns="http://www.w3.org/2000/svg">
  <defs>
    <linearGradient id="holographic" x1="0%" y1="0%" x2="100%" y2="100%">
      <stop offset="0%" style="stop-color:#00D4FF;stop-opacity:1" />
      <stop offset="33%" style="stop-color:#7c3aed;stop-opacity:1" />
      <stop offset="66%" style="stop-color:#ec4899;stop-opacity:1" />
      <stop offset="100%" style="stop-color:#00D4FF;stop-opacity:1" />
    </linearGradient>
    <filter id="glow">
      <feGaussianBlur stdDeviation="3" result="coloredBlur"/>
      <feMerge> 
        <feMergeNode in="coloredBlur"/>
        <feMergeNode in="SourceGraphic"/>
      </feMerge>
    </filter>
  </defs>
  
  <!-- Slime base -->
  <path d="M32 8C20 8 12 16 12 28C12 36 16 42 22 46C24 48 26 50 28 52C30 54 32 56 32 56C32 56 34 54 36 52C38 50 40 48 42 46C48 42 52 36 52 28C52 16 44 8 32 8Z" 
        fill="url(#holographic)" 
        filter="url(#glow)"/>
  
  <!-- Highlight -->
  <ellipse cx="26" cy="22" rx="6" ry="4" fill="rgba(255,255,255,0.3)"/>
  
  <!-- Eyes -->
  <circle cx="26" cy="26" r="3" fill="#1e293b"/>
  <circle cx="38" cy="26" r="3" fill="#1e293b"/>
  <circle cx="27" cy="25" r="1" fill="white"/>
  <circle cx="39" cy="25" r="1" fill="white"/>
  
  <!-- Mouth -->
  <path d="M28 34C30 36 34 36 36 34" stroke="#1e293b" stroke-width="2" stroke-linecap="round" fill="none"/>
  
  <!-- Sparkles -->
  <g fill="#00D4FF" opacity="0.8">
    <circle cx="18" cy="18" r="1"/>
    <circle cx="46" cy="20" r="1.5"/>
    <circle cx="50" cy="40" r="1"/>
    <circle cx="14" cy="42" r="1.5"/>
  </g>
</svg>